<mxfile host="app.diagrams.net" modified="2023-11-30T09:47:14.820Z" agent="Mozilla/5.0 (Macintosh; Intel Mac OS X 10_15_7) AppleWebKit/537.36 (KHTML, like Gecko) Chrome/119.0.0.0 Safari/537.36" etag="uDr19uq7mJq4kDraWiUn" version="22.1.5" type="github">
  <diagram name="Page-1" id="ZUwImgCGOi5CGwvI1kEc">
    <mxGraphModel dx="11851" dy="3880" grid="1" gridSize="10" guides="1" tooltips="1" connect="1" arrows="1" fold="1" page="1" pageScale="1" pageWidth="4681" pageHeight="3300" math="0" shadow="0">
      <root>
        <mxCell id="0" />
        <mxCell id="1" style="" parent="0" />
        <mxCell id="WF2_lYyOvgvy8zbmnS7F-208" value="" style="group;movable=1;resizable=1;rotatable=1;deletable=1;editable=1;locked=0;connectable=1;" vertex="1" connectable="0" parent="1">
          <mxGeometry x="1232" y="440" width="3638" height="2230" as="geometry" />
        </mxCell>
        <mxCell id="WF2_lYyOvgvy8zbmnS7F-4" value="AWS Cloud" style="sketch=0;outlineConnect=0;gradientColor=none;html=1;whiteSpace=wrap;fontSize=12;fontStyle=0;shape=mxgraph.aws4.group;grIcon=mxgraph.aws4.group_aws_cloud;strokeColor=#33001A;fillColor=none;verticalAlign=top;align=left;spacingLeft=30;fontColor=#AAB7B8;dashed=0;movable=1;resizable=1;rotatable=1;deletable=1;editable=1;locked=0;connectable=1;" vertex="1" parent="WF2_lYyOvgvy8zbmnS7F-208">
          <mxGeometry x="-310" y="-40" width="3820" height="2250" as="geometry" />
        </mxCell>
        <mxCell id="WF2_lYyOvgvy8zbmnS7F-249" value="" style="rounded=1;arcSize=10;dashed=1;strokeColor=#ff0000;fillColor=none;gradientColor=none;dashPattern=8 4;strokeWidth=2;" vertex="1" parent="WF2_lYyOvgvy8zbmnS7F-208">
          <mxGeometry x="518" y="555" width="3110" height="180" as="geometry" />
        </mxCell>
        <mxCell id="WF2_lYyOvgvy8zbmnS7F-5" value="Region" style="sketch=0;outlineConnect=0;gradientColor=none;html=1;whiteSpace=wrap;fontSize=12;fontStyle=0;shape=mxgraph.aws4.group;grIcon=mxgraph.aws4.group_region;strokeColor=#33001A;fillColor=none;verticalAlign=top;align=left;spacingLeft=30;fontColor=#879196;dashed=1;movable=1;resizable=1;rotatable=1;deletable=1;editable=1;locked=0;connectable=1;" vertex="1" parent="WF2_lYyOvgvy8zbmnS7F-208">
          <mxGeometry x="38" y="38" width="3420" height="2120" as="geometry" />
        </mxCell>
        <mxCell id="WF2_lYyOvgvy8zbmnS7F-185" value="" style="sketch=0;outlineConnect=0;fontColor=#232F3E;gradientColor=none;fillColor=#8C4FFF;strokeColor=none;dashed=0;verticalLabelPosition=bottom;verticalAlign=top;align=center;html=1;fontSize=12;fontStyle=0;aspect=fixed;pointerEvents=1;shape=mxgraph.aws4.network_load_balancer;" vertex="1" parent="WF2_lYyOvgvy8zbmnS7F-208">
          <mxGeometry x="1561" y="420" width="78" height="78" as="geometry" />
        </mxCell>
        <mxCell id="WF2_lYyOvgvy8zbmnS7F-196" value="" style="sketch=0;outlineConnect=0;fontColor=#232F3E;gradientColor=none;fillColor=#8C4FFF;strokeColor=none;dashed=0;verticalLabelPosition=bottom;verticalAlign=top;align=center;html=1;fontSize=12;fontStyle=0;aspect=fixed;pointerEvents=1;shape=mxgraph.aws4.network_load_balancer;" vertex="1" parent="WF2_lYyOvgvy8zbmnS7F-208">
          <mxGeometry x="2648" y="240" width="78" height="78" as="geometry" />
        </mxCell>
        <mxCell id="WF2_lYyOvgvy8zbmnS7F-210" value="" style="sketch=0;outlineConnect=0;fontColor=#232F3E;gradientColor=none;fillColor=#8C4FFF;strokeColor=none;dashed=0;verticalLabelPosition=bottom;verticalAlign=top;align=center;html=1;fontSize=12;fontStyle=0;aspect=fixed;pointerEvents=1;shape=mxgraph.aws4.application_load_balancer;" vertex="1" parent="WF2_lYyOvgvy8zbmnS7F-208">
          <mxGeometry x="768" y="400" width="78" height="78" as="geometry" />
        </mxCell>
        <mxCell id="WF2_lYyOvgvy8zbmnS7F-211" value="" style="sketch=0;outlineConnect=0;fontColor=#232F3E;gradientColor=none;fillColor=#8C4FFF;strokeColor=none;dashed=0;verticalLabelPosition=bottom;verticalAlign=top;align=center;html=1;fontSize=12;fontStyle=0;aspect=fixed;pointerEvents=1;shape=mxgraph.aws4.application_load_balancer;" vertex="1" parent="WF2_lYyOvgvy8zbmnS7F-208">
          <mxGeometry x="1448" y="420" width="78" height="78" as="geometry" />
        </mxCell>
        <mxCell id="WF2_lYyOvgvy8zbmnS7F-217" value="Kubernetes Cluster" style="points=[[0,0],[0.25,0],[0.5,0],[0.75,0],[1,0],[1,0.25],[1,0.5],[1,0.75],[1,1],[0.75,1],[0.5,1],[0.25,1],[0,1],[0,0.75],[0,0.5],[0,0.25]];outlineConnect=0;gradientColor=none;html=1;whiteSpace=wrap;fontSize=12;fontStyle=0;container=1;pointerEvents=0;collapsible=0;recursiveResize=0;shape=mxgraph.aws4.group;grIcon=mxgraph.aws4.group_ec2_instance_contents;strokeColor=#D86613;fillColor=none;verticalAlign=top;align=left;spacingLeft=30;fontColor=#D86613;dashed=0;" vertex="1" parent="WF2_lYyOvgvy8zbmnS7F-208">
          <mxGeometry x="2084.5" y="1213" width="487" height="130" as="geometry" />
        </mxCell>
        <mxCell id="WF2_lYyOvgvy8zbmnS7F-103" value="" style="sketch=0;outlineConnect=0;fontColor=#232F3E;gradientColor=none;fillColor=#8C4FFF;strokeColor=none;dashed=0;verticalLabelPosition=bottom;verticalAlign=top;align=center;html=1;fontSize=12;fontStyle=0;aspect=fixed;pointerEvents=1;shape=mxgraph.aws4.internet_gateway;" vertex="1" parent="WF2_lYyOvgvy8zbmnS7F-208">
          <mxGeometry x="38" y="1029" width="110" height="110" as="geometry" />
        </mxCell>
        <mxCell id="WF2_lYyOvgvy8zbmnS7F-56" value="" style="sketch=0;points=[[0,0,0],[0.25,0,0],[0.5,0,0],[0.75,0,0],[1,0,0],[0,1,0],[0.25,1,0],[0.5,1,0],[0.75,1,0],[1,1,0],[0,0.25,0],[0,0.5,0],[0,0.75,0],[1,0.25,0],[1,0.5,0],[1,0.75,0]];outlineConnect=0;fontColor=#232F3E;fillColor=#C925D1;strokeColor=#ffffff;dashed=0;verticalLabelPosition=bottom;verticalAlign=top;align=center;html=1;fontSize=12;fontStyle=0;aspect=fixed;shape=mxgraph.aws4.resourceIcon;resIcon=mxgraph.aws4.codedeploy;" vertex="1" parent="WF2_lYyOvgvy8zbmnS7F-208">
          <mxGeometry x="1788" y="1730" width="190" height="190" as="geometry" />
        </mxCell>
        <mxCell id="WF2_lYyOvgvy8zbmnS7F-64" value="" style="sketch=0;outlineConnect=0;fontColor=#232F3E;gradientColor=none;fillColor=#7AA116;strokeColor=none;dashed=0;verticalLabelPosition=bottom;verticalAlign=top;align=center;html=1;fontSize=12;fontStyle=0;aspect=fixed;pointerEvents=1;shape=mxgraph.aws4.bucket_with_objects;" vertex="1" parent="WF2_lYyOvgvy8zbmnS7F-208">
          <mxGeometry x="958" y="1430" width="95" height="98.8" as="geometry" />
        </mxCell>
        <mxCell id="WF2_lYyOvgvy8zbmnS7F-24" value="VPC" style="sketch=0;outlineConnect=0;gradientColor=none;html=1;whiteSpace=wrap;fontSize=12;fontStyle=0;shape=mxgraph.aws4.group;grIcon=mxgraph.aws4.group_vpc;strokeColor=#879196;fillColor=none;verticalAlign=top;align=left;spacingLeft=30;fontColor=#879196;dashed=0;" vertex="1" parent="1">
          <mxGeometry x="1300" y="520" width="3340" height="2030" as="geometry" />
        </mxCell>
        <mxCell id="WF2_lYyOvgvy8zbmnS7F-92" value="Availability Zone" style="fillColor=none;strokeColor=#147EBA;dashed=1;verticalAlign=top;fontStyle=0;fontColor=#147EBA;whiteSpace=wrap;html=1;" vertex="1" parent="1">
          <mxGeometry x="3962" y="600" width="598" height="1260" as="geometry" />
        </mxCell>
        <mxCell id="WF2_lYyOvgvy8zbmnS7F-90" value="Availability Zone" style="fillColor=none;strokeColor=#147EBA;dashed=1;verticalAlign=top;fontStyle=0;fontColor=#147EBA;whiteSpace=wrap;html=1;" vertex="1" parent="1">
          <mxGeometry x="3252" y="599" width="620" height="1260" as="geometry" />
        </mxCell>
        <mxCell id="WF2_lYyOvgvy8zbmnS7F-195" value="" style="rounded=1;arcSize=10;dashed=1;strokeColor=#ff0000;fillColor=none;gradientColor=none;dashPattern=8 4;strokeWidth=2;" vertex="1" parent="1">
          <mxGeometry x="1750" y="1622" width="3110" height="180" as="geometry" />
        </mxCell>
        <mxCell id="WF2_lYyOvgvy8zbmnS7F-26" value="Availability Zone" style="fillColor=none;strokeColor=#147EBA;dashed=1;verticalAlign=top;fontStyle=0;fontColor=#147EBA;whiteSpace=wrap;html=1;" vertex="1" parent="1">
          <mxGeometry x="1885" y="601" width="620" height="1259" as="geometry" />
        </mxCell>
        <mxCell id="WF2_lYyOvgvy8zbmnS7F-88" value="Availability Zone" style="fillColor=none;strokeColor=#147EBA;dashed=1;verticalAlign=top;fontStyle=0;fontColor=#147EBA;whiteSpace=wrap;html=1;" vertex="1" parent="1">
          <mxGeometry x="2558" y="600" width="620" height="1260" as="geometry" />
        </mxCell>
        <mxCell id="WF2_lYyOvgvy8zbmnS7F-169" value="Private subnet" style="points=[[0,0],[0.25,0],[0.5,0],[0.75,0],[1,0],[1,0.25],[1,0.5],[1,0.75],[1,1],[0.75,1],[0.5,1],[0.25,1],[0,1],[0,0.75],[0,0.5],[0,0.25]];outlineConnect=0;gradientColor=none;html=1;whiteSpace=wrap;fontSize=12;fontStyle=0;container=1;pointerEvents=0;collapsible=0;recursiveResize=0;shape=mxgraph.aws4.group;grIcon=mxgraph.aws4.group_security_group;grStroke=0;strokeColor=#00A4A6;fillColor=#E6F6F7;verticalAlign=top;align=left;spacingLeft=30;fontColor=#147EBA;dashed=0;" vertex="1" parent="1">
          <mxGeometry x="3287" y="1630" width="534.75" height="160" as="geometry" />
        </mxCell>
        <mxCell id="WF2_lYyOvgvy8zbmnS7F-194" value="" style="rounded=1;arcSize=10;dashed=1;strokeColor=#ff0000;fillColor=none;gradientColor=none;dashPattern=8 4;strokeWidth=2;" vertex="1" parent="1">
          <mxGeometry x="1750" y="1411" width="3110" height="180" as="geometry" />
        </mxCell>
        <mxCell id="WF2_lYyOvgvy8zbmnS7F-193" value="" style="rounded=1;arcSize=10;dashed=1;strokeColor=#ff0000;fillColor=none;gradientColor=none;dashPattern=8 4;strokeWidth=2;" vertex="1" parent="1">
          <mxGeometry x="1750" y="1200" width="3110" height="180" as="geometry" />
        </mxCell>
        <mxCell id="WF2_lYyOvgvy8zbmnS7F-17" style="edgeStyle=orthogonalEdgeStyle;rounded=0;orthogonalLoop=1;jettySize=auto;html=1;" edge="1" parent="1" source="WF2_lYyOvgvy8zbmnS7F-8" target="WF2_lYyOvgvy8zbmnS7F-6">
          <mxGeometry relative="1" as="geometry">
            <Array as="points">
              <mxPoint x="-120" y="1535" />
            </Array>
          </mxGeometry>
        </mxCell>
        <mxCell id="WF2_lYyOvgvy8zbmnS7F-8" value="Amazon Route 53" style="sketch=0;outlineConnect=0;fontColor=#232F3E;gradientColor=none;strokeColor=#ffffff;fillColor=#232F3E;dashed=0;verticalLabelPosition=middle;verticalAlign=bottom;align=center;html=1;whiteSpace=wrap;fontSize=10;fontStyle=1;spacing=3;shape=mxgraph.aws4.productIcon;prIcon=mxgraph.aws4.route_53;" vertex="1" parent="1">
          <mxGeometry x="178" y="1460" width="150" height="150" as="geometry" />
        </mxCell>
        <mxCell id="WF2_lYyOvgvy8zbmnS7F-11" value="" style="swimlane;startSize=0;" vertex="1" parent="1">
          <mxGeometry x="-248" y="1430" width="340" height="1150" as="geometry" />
        </mxCell>
        <mxCell id="WF2_lYyOvgvy8zbmnS7F-6" value="" style="sketch=0;outlineConnect=0;fontColor=#232F3E;gradientColor=none;fillColor=#232F3D;strokeColor=none;dashed=0;verticalLabelPosition=bottom;verticalAlign=top;align=center;html=1;fontSize=12;fontStyle=0;aspect=fixed;pointerEvents=1;shape=mxgraph.aws4.user;" vertex="1" parent="WF2_lYyOvgvy8zbmnS7F-11">
          <mxGeometry x="79.72999999999999" y="940" width="138.55" height="130" as="geometry" />
        </mxCell>
        <mxCell id="WF2_lYyOvgvy8zbmnS7F-67" value="" style="shape=image;verticalLabelPosition=bottom;labelBackgroundColor=default;verticalAlign=top;aspect=fixed;imageAspect=0;image=https://images.ctfassets.net/2vm221913gep/79q4hqxMz9w2xhBjDDA0Gl/5f1653ceb354443ad952a67afc93eadb/58db2ca1-0d1d-40c8-9ef5-a79897cb9ce9.jpeg;" vertex="1" parent="WF2_lYyOvgvy8zbmnS7F-11">
          <mxGeometry x="48.5" y="1880" width="213.33" height="120" as="geometry" />
        </mxCell>
        <mxCell id="WF2_lYyOvgvy8zbmnS7F-7" value="&lt;font style=&quot;font-size: 18px;&quot;&gt;Application User&lt;/font&gt;" style="text;html=1;strokeColor=none;fillColor=none;align=center;verticalAlign=middle;whiteSpace=wrap;rounded=0;" vertex="1" parent="WF2_lYyOvgvy8zbmnS7F-11">
          <mxGeometry x="24" y="1080" width="240" height="25" as="geometry" />
        </mxCell>
        <mxCell id="WF2_lYyOvgvy8zbmnS7F-9" value="" style="shape=image;verticalLabelPosition=bottom;labelBackgroundColor=default;verticalAlign=top;aspect=fixed;imageAspect=0;image=data:image/png,iVBORw0KGgoAAAANSUhEUgAAAHcAAAAkCAMAAACE/VXhAAAAaVBMVEX////yL0byLkXyKkLyJT/yITzzRlnxDTH+9vj/9PXzUmL3hpH+6ev2f4n819v4p6/zWGj4lqDyNEv94uX+7vDxGTfzP1T4n6j5rbT6vcL2eIX8z9PzOFD0Xm77xsz1ZHP3jZf1bHr6tLrwLc4EAAAD30lEQVRYhcWY25qqOgyAS9twEhAKRZCD4vs/5ErSwjiz0Y994UwuxlJi/jan1hHiSYrHNTVStuWpr8VvSdJNAWgpg0AqDeY2x7+CnUOrkLmK1PZWfJ6aXCPFOKlQJC9AR9WnsU2qmQoqTKcpbbWW/Lh81tdNSFhpdTVk+BjX89UCBRpun8QmvFttLs9zd02Ot9efym89EDtZB1/Pu3IlLEw/SmdgJ8D5ea7pr289cE1JwqIK6bNtTvycDrvKQ0T2y/+sqh5xxzLYlhM/8tFC+I5bakpLO5yAPqNm4U897+kmIZrXN8LWReaRRYN/MwLrZdXTFrNNvedyUUBx4jRFLueN2uU+LL4yuKu4ak1bIb/JRxN2+Gqmira+jOORcvw9N7WAEg0bl5/tLnfCNQKlVBUpqSIcLRbLOOqFizzcj3P7M0uzcvsLS7ajWmAIpcJBbdhumw1cvIoCXlsi8dfmnt/LsVqFFtbRgLbjCA7bxZ6bzG4i4XXPeWrGsvLuewBuiRrTELDdoOghCFYcBkgCa2rruqgELzZNMAN4gAXTWthejNnKvUY0ocnAXGrARqhALmwvR8tq2PYrx3r2+6VVdrCWkvlq3jI13FQy4VRtzV4LZNi6UGzcXLutCHHeur/UmnCpWj2ZY1ilxWhOgIOIEksMqK2vP7j6PnFP6QXbpeyg9eE85/Me9xw9nTkKEIzZokr2eJJjz8opqovUozsTMsSpiUaBWncr4cx29Um4PahFcMHAfHvBrf2q3YETaMwdHKm1BxVD/WMQEzelUbudksidLdmf6shNtDW7GZJpn1ufOGXwAPBZAvNhLntmbSOJC+fifaDZLurt+9n4lDVYAQ+XPMthP/v69e2LW/pXorFdzL997nh27+/bN2V7OK++c88QfAdT7IpX3Irjavuvb8rDdfSdm0Vbcq5hp0bzgnthLvBOLsBTh/vG2iddTDDNPG0KPZjc+CK+M5tWEx42Wcgq0+E+6bmBvjyoMd69o6HLfaij4RU3qN05paeucxcqe/4f54LfIlgK/eD9G2WDdSEe45fcYgBX6ABsQ7XN8XPQ9QZebUd3I29BNN4PuXjNFafnPJTwEMfPfdHZJ66vJMoMP3q848aT3Rql8vfjo/ccccPeLtcSmyMcKawdXA9NAq201DSJXGC9JOd7DimJOx9H+Na2D2/v6L0uqdJA6SC8kWYzGmMCWm0GPCKNKcChSbO7aVFkcuf7XcmWi1PaGtOW52azd/gemxTDPGyxQHEWSbJtrihEUrNs91mfmXVRfLt6vL63L+Kj8ke/U/7sd5n4q9+h4s9+d5P84v8Z/gEANknAiUadygAAAABJRU5ErkJggg==;" vertex="1" parent="WF2_lYyOvgvy8zbmnS7F-11">
          <mxGeometry x="54.50000000000001" y="2056" width="189" height="57.18" as="geometry" />
        </mxCell>
        <mxCell id="WF2_lYyOvgvy8zbmnS7F-23" value="&lt;font style=&quot;font-size: 24px;&quot;&gt;webhooks&lt;/font&gt;" style="text;html=1;strokeColor=none;fillColor=none;align=center;verticalAlign=middle;whiteSpace=wrap;rounded=0;" vertex="1" parent="WF2_lYyOvgvy8zbmnS7F-11">
          <mxGeometry x="64" y="2113.1800000000003" width="160" height="30" as="geometry" />
        </mxCell>
        <mxCell id="WF2_lYyOvgvy8zbmnS7F-71" value="" style="group" vertex="1" connectable="0" parent="WF2_lYyOvgvy8zbmnS7F-11">
          <mxGeometry x="48" y="1710" width="233.74" height="120" as="geometry" />
        </mxCell>
        <mxCell id="WF2_lYyOvgvy8zbmnS7F-14" value="" style="shape=image;verticalLabelPosition=bottom;labelBackgroundColor=default;verticalAlign=top;aspect=fixed;imageAspect=0;image=data:image/png,iVBORw0KGgoAAAANSUhEUgAAAWkAAACLCAMAAACUXphBAAAAdVBMVEX///8AAABdXV2UlJSCgoLX19f19fXt7e2rq6uFhYUjIyP8/PxWVlZsbGwnJyeOjo69vb3R0dHd3d21tbWgoKDr6+tDQ0Ovr69PT09nZ2dzc3Pk5ORKSkrFxcV4eHiZmZkRERE2NjYbGxs9PT0wMDAeHh4MDAyEzhaSAAAJF0lEQVR4nO2c6XriOgyGgZJAWdoAYV8K3e7/Es8By7YsKSFp4s4zjN5fpYm3z44l2U46HUVRFEVRFEVRFEVRFEVRFEVRFEVRFEVRFEVRFEVRFEVRFEWJyPLUDzjNamdx7DfO4p/goxuyqp3DiOTQHUeo5gNwpDolTTN4jVLPB+CdCNWrmf5AlU6jVPMBGFKl9rWSz2nyXaR6PgBUqn6t1DuafB6pmg/Aa5PHP6WJD9Hq+fczoGK91UjMuukYrZ4PwJSqVT3pmCb9jFfNB4AZtXXlpMycVk/6T7Ihcr1UTsmiloi1fARY8FF1smUJn6LW8wF4IYJVDclXVGmNWu6wpopVC8nZBH+KXM8HgEq2rZSKOS31wst/kieq2aBCIuaIb6LX8++HhXpVQvJnmkgXpivAli/u2zYWtVx+oZ5/P8y43Q/JWdSyiFe9wWyRv73lWdLSLsP43kBKocB5+9saE6rb3RRftVPc2PWubAq9m6fJ9fok8/9J+sgLPeRUpNv9vQmLTrPrhcmzUMR8Uz4/7l8vvsAeHUBDUyBjMizOETOrO0JZ1FJxYWoBDSi4bC2GG0tHuv/W3YXm2v6bOj7mmZvwIhJzf9FkN6chczcPrjPvwVJ1s+mTpLsXkjMBqkYtZ1mYsB221mlPalPQdPtPqpxRmveos/7ynsVJKG+EK9tY6QVNWB6SJ/T2yhsIeVk7rW4wbPffcqO2PAV7qIqU9lIKM1h6kQtEYjRWmkUv5Wv6W3p79aglFDMEzOzU/NoXNQq77kVVKFB6WdbC9FxUoPdgmyv9RlOW7VOxqEWYD4t4LanYOy4a+ZGn9TGZHXNvt6cuib8pnD8KlO6jSrNBffH5D49Jcsz9nO0GRqHSkvEVYdHLtOTmJlGLLUi4lAXdZnX98o5I6trpLDaqRLCUKCsNvXcRW+h6wTsyAzvZuKfI1GCbDgjL6struLfDbmQ0i1ogTMr5lQvuNpCdrFst7Zq49U5wNfBjKCttrMTHXmqhDSp6gRNtnSw7lp7ETqoFmxWLH4ec3poV3lpSELswC7rtRa7FGP5vBzCuBnaYZKXNRLyAYyrhDAbPEF1eA6ltTi0o3WEeVeHzQA3HuV5B0CTmsm9wt0ED+bKVtWnwE2rQpdKJSmc2aRbkcQMGwIgVeArUaENpFr0Izzeu7/0bywuiUw48vd/mF3g3S548xx0CStsq+flDVHrl+sPcjiNLsNTc4iw/V//zCRfaULpzoQpWva/u6gCEPcRlh/VuiGq7xS0yl3b4xxz8Qz8iJaUhCrhOz8bVwtONWV64u9/UitJsrMohORv7lf0bUlA4M1jP0XRbUjTCOvZx/jI/zH2JPSDo6iIpbZ6T20Sc0vwHZU1GtKI0i17kkJzN51X2DUJgWg1cdvAcYapdY9kJMIWnqM6J6yjrJAtKD7C6xgOa0EzvtsUo3fT4IfMppCG1pDdV2wsLGPKU1nMEw2N0/xBTL3HlnL6Q53tQRKC0EQlO/4BVcIGlaTu3hxSTyWhCWNXbrWZ+srRhxfzuukeur0BSZO+gl633PA1+iamP6O9rHcB1gRUYQWlz3VrBFb7bNut+rFsUI9Y8F8BU5E8viyXrv0bg64vWpSA3O8aMJ1iwlmAWnhYoXYJqZsY6VxomJPszC1vIuvYwegmAiaUlpenMINg6tj5SK2qxsHVoum4thRYOszxinBSvtM3DzB9c6U+SpTEW1kPd0gZfaENbVZpaO8E+0IXMr5olABAOuKVOiPycYdiUKW00MtMAUtrW/jYwmdIz2iQzZs7w67eVDtedBVvH1rErbupQSEgOlt8HM6bhBave5uYM/W2UxvMHU7pHm5TibGD2QD5FZKXDE2CCrWPl/3RPE8bfOijWz0TGYshHSAJfOKhp5itFlYauXc8de1MFsDPP+McVeoYuUHo6Tgm1BcDRi2DrWNTy41e14Ol5wT/QTGRckW8xKVTCOC7hmIAYfseVZsbeYdIOXR8B66GlLyj902Yj0OqRsMHF9tB/fugRh+QgEJqJQE1xOwIeYPMjVNr6qUeqNHOZPFNcoOSyvsVR2kcvgq1jK6sNSoSp+RqckOW5K6CM+MiMsIhEILucDD6dU5oFZYibhNBHkmW4xFHaRy+CrWM7x01e1YKtrJnLNtgzOTDxLSAmzPBEabvPcFqESpcIDd0JgQ9/SO2M2bbSfueKX2r3VS2YGXsu26CR68Ix9h7cTZW2bug2UJotngXcbgGvivtb1jS2rrR9lIUHl3k4zV7Vsi2AeTAMve2zxQIjb/RQJkjpwGhbpY1vs3p9Jpi7sGfOHmV3DKB1pW3Wgq2jQld/I0YEFN7BIN2LV6nU9tS2vZspHUxxoDQsJ/EFMzPXmEUnO5WHUvvzFu0rPQ/GDIK9O9DwVa1wMmIHBuwr7TvU5zN71soFc1xp/C48ZDpFggYEXWA3g3s+jjyivLDSLb20fTNGgq1jvnzTggIfl/lX/gDsNtunnXE6z90ZNS+akBgFukbpklX+A7rNF9hb7NN0kORBi7HS3y8jwvknr1NdjbsQnbX/qhY+oCMUyCJ/jx/mUjf54yhGwsABDwFTuS8t8I0pLfCjGO5LtHURPjCBBrUUMhS1/IzWtcXUbiz20D2yFOYauDhsfryRZdGUHkq2LsarWuM7mbHg/8YEr7WISru63pSGDpM3rsDwQpbsue1erdEimtIdydZFeVXLTqmFh6DYubTuOXRGRKWdHjelzQgv2IQDs2yXqcf0RZT3pBNT6TVfoWty6LGE5KVEhSvpW3C0e0L9a1lpu6pyreSx4BYAnEL3e4/t9OdtyEVUWoB9YKKtV7WSLBOOz2CW2etuczhMTvmRm4bxDZ5o7C6Mi24pzCHJT5PDoddf7/EtYcaM8jZUh23mytvWSmPY9qF+MyUO+s2U36KdHXHlLjqkfwv9stUvwXzpH51bUu7D3onT7w/GgS0G6MdpIsHeh9QPH8eBffxDzWEc2CKxzh1xYMvS+m2aOLB3Lc76UbwosONh5/qvDykVYEd/Nup2xGBO34c767d4I7DPN93zlzvO8DX66Kt3pyiKoiiKoiiKoiiKoiiKoiiKoiiKoiiKoiiKoiiKoiiKoih/jP8A/RRecZ4r+sQAAAAASUVORK5CYII=;" vertex="1" parent="WF2_lYyOvgvy8zbmnS7F-71">
          <mxGeometry width="233.74" height="90" as="geometry" />
        </mxCell>
        <mxCell id="WF2_lYyOvgvy8zbmnS7F-25" value="&lt;font style=&quot;font-size: 24px;&quot;&gt;webhooks&lt;/font&gt;" style="text;html=1;strokeColor=none;fillColor=none;align=center;verticalAlign=middle;whiteSpace=wrap;rounded=0;" vertex="1" parent="WF2_lYyOvgvy8zbmnS7F-71">
          <mxGeometry x="42.08" y="90" width="160" height="30" as="geometry" />
        </mxCell>
        <mxCell id="WF2_lYyOvgvy8zbmnS7F-16" style="edgeStyle=orthogonalEdgeStyle;rounded=0;orthogonalLoop=1;jettySize=auto;html=1;" edge="1" parent="1" source="WF2_lYyOvgvy8zbmnS7F-6" target="WF2_lYyOvgvy8zbmnS7F-8">
          <mxGeometry relative="1" as="geometry">
            <Array as="points">
              <mxPoint x="-90" y="1560" />
            </Array>
          </mxGeometry>
        </mxCell>
        <mxCell id="WF2_lYyOvgvy8zbmnS7F-21" value="&lt;span lang=&quot;EN-GB&quot; style=&quot;font-size:12.0pt;font-family:&amp;quot;Calibri&amp;quot;,sans-serif;&#xa;mso-ascii-theme-font:minor-latin;mso-fareast-font-family:Calibri;mso-fareast-theme-font:&#xa;minor-latin;mso-hansi-theme-font:minor-latin;mso-bidi-font-family:&amp;quot;Times New Roman&amp;quot;;&#xa;mso-bidi-theme-font:minor-bidi;mso-ansi-language:EN-GB;mso-fareast-language:&#xa;EN-US;mso-bidi-language:AR-SA&quot;&gt;CIDR: 10.13.0.0/18&lt;/span&gt;" style="text;whiteSpace=wrap;html=1;" vertex="1" parent="1">
          <mxGeometry x="1370" y="520" width="170" height="40" as="geometry" />
        </mxCell>
        <mxCell id="WF2_lYyOvgvy8zbmnS7F-29" value="" style="sketch=0;points=[[0,0,0],[0.25,0,0],[0.5,0,0],[0.75,0,0],[1,0,0],[0,1,0],[0.25,1,0],[0.5,1,0],[0.75,1,0],[1,1,0],[0,0.25,0],[0,0.5,0],[0,0.75,0],[1,0.25,0],[1,0.5,0],[1,0.75,0]];outlineConnect=0;fontColor=#232F3E;fillColor=#8C4FFF;strokeColor=#ffffff;dashed=0;verticalLabelPosition=bottom;verticalAlign=top;align=center;html=1;fontSize=12;fontStyle=0;aspect=fixed;shape=mxgraph.aws4.resourceIcon;resIcon=mxgraph.aws4.cloudfront;" vertex="1" parent="1">
          <mxGeometry x="528" y="1460" width="150" height="150" as="geometry" />
        </mxCell>
        <mxCell id="WF2_lYyOvgvy8zbmnS7F-30" style="edgeStyle=orthogonalEdgeStyle;rounded=0;orthogonalLoop=1;jettySize=auto;html=1;entryX=0;entryY=0.5;entryDx=0;entryDy=0;entryPerimeter=0;" edge="1" parent="1" source="WF2_lYyOvgvy8zbmnS7F-8" target="WF2_lYyOvgvy8zbmnS7F-29">
          <mxGeometry relative="1" as="geometry" />
        </mxCell>
        <mxCell id="WF2_lYyOvgvy8zbmnS7F-31" value="&lt;font style=&quot;font-size: 24px;&quot;&gt;CloudFront CDN&lt;/font&gt;" style="text;html=1;strokeColor=none;fillColor=none;align=center;verticalAlign=middle;whiteSpace=wrap;rounded=0;" vertex="1" parent="1">
          <mxGeometry x="523" y="1630" width="160" height="30" as="geometry" />
        </mxCell>
        <mxCell id="WF2_lYyOvgvy8zbmnS7F-35" value="&lt;font style=&quot;&quot;&gt;&lt;font style=&quot;font-size: 14px;&quot;&gt;Certificate&lt;br&gt;&lt;/font&gt;&lt;span style=&quot;font-size: 14px;&quot;&gt;manager&lt;/span&gt;&lt;/font&gt;" style="sketch=0;outlineConnect=0;fontColor=#232F3E;gradientColor=none;strokeColor=#232F3E;fillColor=#ffffff;dashed=0;verticalLabelPosition=bottom;verticalAlign=top;align=center;html=1;fontSize=12;fontStyle=0;aspect=fixed;shape=mxgraph.aws4.resourceIcon;resIcon=mxgraph.aws4.certificate_manager;" vertex="1" parent="1">
          <mxGeometry x="533" y="1160" width="140" height="140" as="geometry" />
        </mxCell>
        <mxCell id="WF2_lYyOvgvy8zbmnS7F-43" value="" style="sketch=0;points=[[0,0,0],[0.25,0,0],[0.5,0,0],[0.75,0,0],[1,0,0],[0,1,0],[0.25,1,0],[0.5,1,0],[0.75,1,0],[1,1,0],[0,0.25,0],[0,0.5,0],[0,0.75,0],[1,0.25,0],[1,0.5,0],[1,0.75,0]];outlineConnect=0;fontColor=#232F3E;fillColor=#C925D1;strokeColor=#ffffff;dashed=0;verticalLabelPosition=bottom;verticalAlign=top;align=center;html=1;fontSize=12;fontStyle=0;aspect=fixed;shape=mxgraph.aws4.resourceIcon;resIcon=mxgraph.aws4.codecommit;" vertex="1" parent="1">
          <mxGeometry x="1707.5" y="2240" width="90" height="90" as="geometry" />
        </mxCell>
        <mxCell id="WF2_lYyOvgvy8zbmnS7F-47" style="edgeStyle=orthogonalEdgeStyle;rounded=0;orthogonalLoop=1;jettySize=auto;html=1;entryX=0.5;entryY=0;entryDx=0;entryDy=0;entryPerimeter=0;" edge="1" parent="1" source="WF2_lYyOvgvy8zbmnS7F-35" target="WF2_lYyOvgvy8zbmnS7F-29">
          <mxGeometry relative="1" as="geometry">
            <Array as="points">
              <mxPoint x="660" y="1430" />
              <mxPoint x="603" y="1430" />
            </Array>
          </mxGeometry>
        </mxCell>
        <mxCell id="WF2_lYyOvgvy8zbmnS7F-52" value="" style="swimlane;startSize=0;" vertex="1" parent="1">
          <mxGeometry x="1630" y="2080" width="270" height="330" as="geometry" />
        </mxCell>
        <mxCell id="WF2_lYyOvgvy8zbmnS7F-73" value="" style="group" vertex="1" connectable="0" parent="1">
          <mxGeometry x="1500" y="1990" width="2410" height="490" as="geometry" />
        </mxCell>
        <mxCell id="WF2_lYyOvgvy8zbmnS7F-38" value="" style="swimlane;startSize=0;" vertex="1" parent="WF2_lYyOvgvy8zbmnS7F-73">
          <mxGeometry x="60" y="79" width="1780" height="351" as="geometry" />
        </mxCell>
        <mxCell id="WF2_lYyOvgvy8zbmnS7F-41" value="" style="verticalLabelPosition=bottom;html=1;verticalAlign=top;align=center;strokeColor=none;fillColor=#00BEF2;shape=mxgraph.azure.github_code;pointerEvents=1;" vertex="1" parent="WF2_lYyOvgvy8zbmnS7F-38">
          <mxGeometry x="140" y="30" width="112.36" height="121" as="geometry" />
        </mxCell>
        <mxCell id="WF2_lYyOvgvy8zbmnS7F-45" value="&lt;font style=&quot;font-size: 24px;&quot;&gt;Version Controlling and Repository&lt;/font&gt;" style="text;html=1;strokeColor=none;fillColor=none;align=center;verticalAlign=middle;whiteSpace=wrap;rounded=0;" vertex="1" parent="WF2_lYyOvgvy8zbmnS7F-38">
          <mxGeometry x="60" y="290" width="290" height="30" as="geometry" />
        </mxCell>
        <mxCell id="WF2_lYyOvgvy8zbmnS7F-55" value="" style="sketch=0;points=[[0,0,0],[0.25,0,0],[0.5,0,0],[0.75,0,0],[1,0,0],[0,1,0],[0.25,1,0],[0.5,1,0],[0.75,1,0],[1,1,0],[0,0.25,0],[0,0.5,0],[0,0.75,0],[1,0.25,0],[1,0.5,0],[1,0.75,0]];outlineConnect=0;fontColor=#232F3E;fillColor=#C925D1;strokeColor=#ffffff;dashed=0;verticalLabelPosition=bottom;verticalAlign=top;align=center;html=1;fontSize=12;fontStyle=0;aspect=fixed;shape=mxgraph.aws4.resourceIcon;resIcon=mxgraph.aws4.codebuild;" vertex="1" parent="WF2_lYyOvgvy8zbmnS7F-38">
          <mxGeometry x="654" y="84" width="198" height="198" as="geometry" />
        </mxCell>
        <mxCell id="WF2_lYyOvgvy8zbmnS7F-72" value="" style="group" vertex="1" connectable="0" parent="WF2_lYyOvgvy8zbmnS7F-73">
          <mxGeometry width="150" height="140" as="geometry" />
        </mxCell>
        <mxCell id="WF2_lYyOvgvy8zbmnS7F-40" value="" style="sketch=0;points=[[0,0,0],[0.25,0,0],[0.5,0,0],[0.75,0,0],[1,0,0],[0,1,0],[0.25,1,0],[0.5,1,0],[0.75,1,0],[1,1,0],[0,0.25,0],[0,0.5,0],[0,0.75,0],[1,0.25,0],[1,0.5,0],[1,0.75,0]];outlineConnect=0;fontColor=#232F3E;fillColor=#C925D1;strokeColor=#ffffff;dashed=0;verticalLabelPosition=bottom;verticalAlign=top;align=center;html=1;fontSize=12;fontStyle=0;aspect=fixed;shape=mxgraph.aws4.resourceIcon;resIcon=mxgraph.aws4.codepipeline;" vertex="1" parent="WF2_lYyOvgvy8zbmnS7F-72">
          <mxGeometry x="20" y="30" width="110" height="110" as="geometry" />
        </mxCell>
        <mxCell id="WF2_lYyOvgvy8zbmnS7F-44" value="&lt;font style=&quot;font-size: 18px;&quot;&gt;CI/CD Pipeline&lt;/font&gt;" style="text;html=1;strokeColor=none;fillColor=none;align=center;verticalAlign=middle;whiteSpace=wrap;rounded=0;" vertex="1" parent="WF2_lYyOvgvy8zbmnS7F-72">
          <mxGeometry width="150" height="40" as="geometry" />
        </mxCell>
        <mxCell id="WF2_lYyOvgvy8zbmnS7F-75" value="" style="group;movable=1;resizable=1;rotatable=1;deletable=1;editable=1;locked=0;connectable=1;" vertex="1" connectable="0" parent="WF2_lYyOvgvy8zbmnS7F-73">
          <mxGeometry x="1220" y="-90" width="260" height="180" as="geometry" />
        </mxCell>
        <mxCell id="WF2_lYyOvgvy8zbmnS7F-110" value="" style="group" vertex="1" connectable="0" parent="WF2_lYyOvgvy8zbmnS7F-75">
          <mxGeometry y="1.3846153846153846" width="244.7058823529412" height="178.61538461538464" as="geometry" />
        </mxCell>
        <mxCell id="WF2_lYyOvgvy8zbmnS7F-60" value="" style="outlineConnect=0;dashed=0;verticalLabelPosition=bottom;verticalAlign=top;align=center;html=1;shape=mxgraph.aws3.ecr;fillColor=#F58534;gradientColor=none;" vertex="1" parent="WF2_lYyOvgvy8zbmnS7F-110">
          <mxGeometry x="42.03" y="-10.588235294117647" width="152.2" height="145.44000000000003" as="geometry" />
        </mxCell>
        <mxCell id="WF2_lYyOvgvy8zbmnS7F-61" value="&lt;font style=&quot;font-size: 18px;&quot;&gt;Container Registry&lt;/font&gt;" style="text;html=1;align=center;verticalAlign=middle;resizable=1;points=[];autosize=1;strokeColor=none;fillColor=none;movable=1;rotatable=1;deletable=1;editable=1;locked=0;connectable=1;" vertex="1" parent="WF2_lYyOvgvy8zbmnS7F-110">
          <mxGeometry y="123.23076923076924" width="244.7058823529412" height="55.384615384615394" as="geometry" />
        </mxCell>
        <mxCell id="WF2_lYyOvgvy8zbmnS7F-63" style="edgeStyle=orthogonalEdgeStyle;rounded=0;orthogonalLoop=1;jettySize=auto;html=1;exitX=0.5;exitY=0;exitDx=0;exitDy=0;exitPerimeter=0;entryX=0;entryY=0.5;entryDx=0;entryDy=0;entryPerimeter=0;" edge="1" parent="WF2_lYyOvgvy8zbmnS7F-73" source="WF2_lYyOvgvy8zbmnS7F-55" target="WF2_lYyOvgvy8zbmnS7F-60">
          <mxGeometry relative="1" as="geometry">
            <mxPoint x="930" y="-10" as="targetPoint" />
          </mxGeometry>
        </mxCell>
        <mxCell id="WF2_lYyOvgvy8zbmnS7F-218" value="&lt;span style=&quot;font-size: 24px;&quot;&gt;EACH PIPELINE IS DIFFERENT FOR EACH&lt;br&gt;STAGES OF THE PRODUCTION&lt;br&gt;&lt;/span&gt;" style="text;html=1;strokeColor=none;fillColor=none;align=left;verticalAlign=middle;whiteSpace=wrap;rounded=0;" vertex="1" parent="WF2_lYyOvgvy8zbmnS7F-73">
          <mxGeometry x="540" y="460" width="512" height="30" as="geometry" />
        </mxCell>
        <mxCell id="WF2_lYyOvgvy8zbmnS7F-78" style="edgeStyle=orthogonalEdgeStyle;rounded=0;orthogonalLoop=1;jettySize=auto;html=1;" edge="1" parent="1" target="WF2_lYyOvgvy8zbmnS7F-64">
          <mxGeometry relative="1" as="geometry">
            <mxPoint x="1530" y="1880" as="targetPoint" />
            <mxPoint x="2309" y="2149" as="sourcePoint" />
            <Array as="points">
              <mxPoint x="2309" y="2140" />
              <mxPoint x="2270" y="2140" />
            </Array>
          </mxGeometry>
        </mxCell>
        <mxCell id="WF2_lYyOvgvy8zbmnS7F-85" value="Public subnet" style="points=[[0,0],[0.25,0],[0.5,0],[0.75,0],[1,0],[1,0.25],[1,0.5],[1,0.75],[1,1],[0.75,1],[0.5,1],[0.25,1],[0,1],[0,0.75],[0,0.5],[0,0.25]];outlineConnect=0;gradientColor=none;html=1;whiteSpace=wrap;fontSize=12;fontStyle=0;container=1;pointerEvents=0;collapsible=0;recursiveResize=0;shape=mxgraph.aws4.group;grIcon=mxgraph.aws4.group_security_group;grStroke=0;strokeColor=#7AA116;fillColor=#F2F6E8;verticalAlign=top;align=left;spacingLeft=30;fontColor=#248814;dashed=0;" vertex="1" parent="1">
          <mxGeometry x="1920" y="620" width="550" height="140" as="geometry" />
        </mxCell>
        <mxCell id="WF2_lYyOvgvy8zbmnS7F-113" value="" style="outlineConnect=0;dashed=0;verticalLabelPosition=bottom;verticalAlign=top;align=center;html=1;shape=mxgraph.aws3.vpc_nat_gateway;fillColor=#F58534;gradientColor=none;" vertex="1" parent="WF2_lYyOvgvy8zbmnS7F-85">
          <mxGeometry x="30" y="28" width="70" height="72" as="geometry" />
        </mxCell>
        <mxCell id="WF2_lYyOvgvy8zbmnS7F-91" value="Public subnet" style="points=[[0,0],[0.25,0],[0.5,0],[0.75,0],[1,0],[1,0.25],[1,0.5],[1,0.75],[1,1],[0.75,1],[0.5,1],[0.25,1],[0,1],[0,0.75],[0,0.5],[0,0.25]];outlineConnect=0;gradientColor=none;html=1;whiteSpace=wrap;fontSize=12;fontStyle=0;container=1;pointerEvents=0;collapsible=0;recursiveResize=0;shape=mxgraph.aws4.group;grIcon=mxgraph.aws4.group_security_group;grStroke=0;strokeColor=#7AA116;fillColor=#F2F6E8;verticalAlign=top;align=left;spacingLeft=30;fontColor=#248814;dashed=0;" vertex="1" parent="1">
          <mxGeometry x="3280" y="620" width="560" height="140" as="geometry" />
        </mxCell>
        <mxCell id="WF2_lYyOvgvy8zbmnS7F-205" value="" style="outlineConnect=0;dashed=0;verticalLabelPosition=bottom;verticalAlign=top;align=center;html=1;shape=mxgraph.aws3.vpc_nat_gateway;fillColor=#F58534;gradientColor=none;" vertex="1" parent="WF2_lYyOvgvy8zbmnS7F-91">
          <mxGeometry x="20" y="36.5" width="69.63" height="67" as="geometry" />
        </mxCell>
        <mxCell id="WF2_lYyOvgvy8zbmnS7F-95" value="Private subnet" style="points=[[0,0],[0.25,0],[0.5,0],[0.75,0],[1,0],[1,0.25],[1,0.5],[1,0.75],[1,1],[0.75,1],[0.5,1],[0.25,1],[0,1],[0,0.75],[0,0.5],[0,0.25]];outlineConnect=0;gradientColor=none;html=1;whiteSpace=wrap;fontSize=12;fontStyle=0;container=1;pointerEvents=0;collapsible=0;recursiveResize=0;shape=mxgraph.aws4.group;grIcon=mxgraph.aws4.group_security_group;grStroke=0;strokeColor=#00A4A6;fillColor=#E6F6F7;verticalAlign=top;align=left;spacingLeft=30;fontColor=#147EBA;dashed=0;" vertex="1" parent="1">
          <mxGeometry x="1920" y="1630" width="534.75" height="160" as="geometry" />
        </mxCell>
        <mxCell id="WF2_lYyOvgvy8zbmnS7F-105" value="" style="sketch=0;pointerEvents=1;shadow=0;dashed=0;html=1;strokeColor=none;fillColor=#505050;labelPosition=center;verticalLabelPosition=bottom;verticalAlign=top;outlineConnect=0;align=center;shape=mxgraph.office.sites.site_team;" vertex="1" parent="1">
          <mxGeometry x="1310" y="2340" width="206.94" height="169" as="geometry" />
        </mxCell>
        <mxCell id="WF2_lYyOvgvy8zbmnS7F-106" style="edgeStyle=orthogonalEdgeStyle;rounded=0;orthogonalLoop=1;jettySize=auto;html=1;entryX=0.001;entryY=0.468;entryDx=0;entryDy=0;entryPerimeter=0;" edge="1" parent="1" source="WF2_lYyOvgvy8zbmnS7F-105" target="WF2_lYyOvgvy8zbmnS7F-52">
          <mxGeometry relative="1" as="geometry">
            <Array as="points">
              <mxPoint x="1413" y="2234" />
              <mxPoint x="1573" y="2234" />
            </Array>
          </mxGeometry>
        </mxCell>
        <mxCell id="WF2_lYyOvgvy8zbmnS7F-108" value="" style="edgeStyle=orthogonalEdgeStyle;rounded=0;orthogonalLoop=1;jettySize=auto;html=1;exitX=1;exitY=0.5;exitDx=0;exitDy=0;entryX=0;entryY=0.5;entryDx=0;entryDy=0;entryPerimeter=0;" edge="1" parent="1" source="WF2_lYyOvgvy8zbmnS7F-52" target="WF2_lYyOvgvy8zbmnS7F-107">
          <mxGeometry relative="1" as="geometry">
            <mxPoint x="1900" y="2245" as="sourcePoint" />
            <mxPoint x="2210" y="2248" as="targetPoint" />
            <Array as="points" />
          </mxGeometry>
        </mxCell>
        <mxCell id="WF2_lYyOvgvy8zbmnS7F-107" value="" style="sketch=0;points=[[0,0,0],[0.25,0,0],[0.5,0,0],[0.75,0,0],[1,0,0],[0,1,0],[0.25,1,0],[0.5,1,0],[0.75,1,0],[1,1,0],[0,0.25,0],[0,0.5,0],[0,0.75,0],[1,0.25,0],[1,0.5,0],[1,0.75,0]];points=[[0,0,0],[0.25,0,0],[0.5,0,0],[0.75,0,0],[1,0,0],[0,1,0],[0.25,1,0],[0.5,1,0],[0.75,1,0],[1,1,0],[0,0.25,0],[0,0.5,0],[0,0.75,0],[1,0.25,0],[1,0.5,0],[1,0.75,0]];outlineConnect=0;fontColor=#232F3E;fillColor=#E7157B;strokeColor=#ffffff;dashed=0;verticalLabelPosition=bottom;verticalAlign=top;align=center;html=1;fontSize=12;fontStyle=0;aspect=fixed;shape=mxgraph.aws4.resourceIcon;resIcon=mxgraph.aws4.cloudwatch_2;" vertex="1" parent="1">
          <mxGeometry x="2010" y="1930" width="100" height="100" as="geometry" />
        </mxCell>
        <mxCell id="WF2_lYyOvgvy8zbmnS7F-109" style="edgeStyle=orthogonalEdgeStyle;rounded=0;orthogonalLoop=1;jettySize=auto;html=1;entryX=0;entryY=0.5;entryDx=0;entryDy=0;entryPerimeter=0;" edge="1" parent="1" source="WF2_lYyOvgvy8zbmnS7F-107" target="WF2_lYyOvgvy8zbmnS7F-55">
          <mxGeometry relative="1" as="geometry">
            <Array as="points">
              <mxPoint x="2160" y="1980" />
              <mxPoint x="2160" y="2248" />
            </Array>
          </mxGeometry>
        </mxCell>
        <mxCell id="WF2_lYyOvgvy8zbmnS7F-111" value="" style="sketch=0;outlineConnect=0;fontColor=#232F3E;gradientColor=none;fillColor=#ED7100;strokeColor=none;dashed=0;verticalLabelPosition=bottom;verticalAlign=top;align=center;html=1;fontSize=12;fontStyle=0;aspect=fixed;pointerEvents=1;shape=mxgraph.aws4.auto_scaling2;" vertex="1" parent="1">
          <mxGeometry x="3160" y="1650" width="110" height="110" as="geometry" />
        </mxCell>
        <mxCell id="WF2_lYyOvgvy8zbmnS7F-112" value="" style="sketch=0;outlineConnect=0;fontColor=#232F3E;gradientColor=none;fillColor=#ED7100;strokeColor=none;dashed=0;verticalLabelPosition=bottom;verticalAlign=top;align=center;html=1;fontSize=12;fontStyle=0;aspect=fixed;pointerEvents=1;shape=mxgraph.aws4.auto_scaling2;" vertex="1" parent="1">
          <mxGeometry x="3870" y="1650" width="110" height="110" as="geometry" />
        </mxCell>
        <mxCell id="WF2_lYyOvgvy8zbmnS7F-131" value="&lt;span style=&quot;font-size: 24px;&quot;&gt;Dev&lt;/span&gt;" style="text;html=1;strokeColor=none;fillColor=none;align=center;verticalAlign=middle;whiteSpace=wrap;rounded=0;" vertex="1" parent="1">
          <mxGeometry x="2140" y="560" width="60" height="30" as="geometry" />
        </mxCell>
        <mxCell id="WF2_lYyOvgvy8zbmnS7F-132" value="&lt;span style=&quot;font-size: 24px;&quot;&gt;QA&lt;/span&gt;" style="text;html=1;strokeColor=none;fillColor=none;align=center;verticalAlign=middle;whiteSpace=wrap;rounded=0;" vertex="1" parent="1">
          <mxGeometry x="2800" y="560" width="60" height="30" as="geometry" />
        </mxCell>
        <mxCell id="WF2_lYyOvgvy8zbmnS7F-133" value="&lt;span style=&quot;font-size: 24px;&quot;&gt;Prod&lt;/span&gt;" style="text;html=1;strokeColor=none;fillColor=none;align=center;verticalAlign=middle;whiteSpace=wrap;rounded=0;" vertex="1" parent="1">
          <mxGeometry x="3532" y="560" width="60" height="30" as="geometry" />
        </mxCell>
        <mxCell id="WF2_lYyOvgvy8zbmnS7F-134" value="&lt;span style=&quot;font-size: 24px;&quot;&gt;Prod HA&lt;/span&gt;" style="text;html=1;strokeColor=none;fillColor=none;align=center;verticalAlign=middle;whiteSpace=wrap;rounded=0;" vertex="1" parent="1">
          <mxGeometry x="4231.75" y="560" width="106.25" height="30" as="geometry" />
        </mxCell>
        <mxCell id="WF2_lYyOvgvy8zbmnS7F-156" value="Private subnet" style="points=[[0,0],[0.25,0],[0.5,0],[0.75,0],[1,0],[1,0.25],[1,0.5],[1,0.75],[1,1],[0.75,1],[0.5,1],[0.25,1],[0,1],[0,0.75],[0,0.5],[0,0.25]];outlineConnect=0;gradientColor=none;html=1;whiteSpace=wrap;fontSize=12;fontStyle=0;container=1;pointerEvents=0;collapsible=0;recursiveResize=0;shape=mxgraph.aws4.group;grIcon=mxgraph.aws4.group_security_group;grStroke=0;strokeColor=#00A4A6;fillColor=#E6F6F7;verticalAlign=top;align=left;spacingLeft=30;fontColor=#147EBA;dashed=0;" vertex="1" parent="1">
          <mxGeometry x="1920" y="1420" width="540" height="163" as="geometry" />
        </mxCell>
        <mxCell id="WF2_lYyOvgvy8zbmnS7F-158" value="Private subnet" style="points=[[0,0],[0.25,0],[0.5,0],[0.75,0],[1,0],[1,0.25],[1,0.5],[1,0.75],[1,1],[0.75,1],[0.5,1],[0.25,1],[0,1],[0,0.75],[0,0.5],[0,0.25]];outlineConnect=0;gradientColor=none;html=1;whiteSpace=wrap;fontSize=12;fontStyle=0;container=1;pointerEvents=0;collapsible=0;recursiveResize=0;shape=mxgraph.aws4.group;grIcon=mxgraph.aws4.group_security_group;grStroke=0;strokeColor=#00A4A6;fillColor=#E6F6F7;verticalAlign=top;align=left;spacingLeft=30;fontColor=#147EBA;dashed=0;" vertex="1" parent="1">
          <mxGeometry x="1920" y="1222" width="540" height="145" as="geometry" />
        </mxCell>
        <mxCell id="WF2_lYyOvgvy8zbmnS7F-151" value="" style="outlineConnect=0;dashed=0;verticalLabelPosition=bottom;verticalAlign=top;align=center;html=1;shape=mxgraph.aws3.rds_db_instance;fillColor=#2E73B8;gradientColor=none;" vertex="1" parent="1">
          <mxGeometry x="2131" y="1258" width="49.5" height="66" as="geometry" />
        </mxCell>
        <mxCell id="WF2_lYyOvgvy8zbmnS7F-162" value="Kubernetes Cluster" style="points=[[0,0],[0.25,0],[0.5,0],[0.75,0],[1,0],[1,0.25],[1,0.5],[1,0.75],[1,1],[0.75,1],[0.5,1],[0.25,1],[0,1],[0,0.75],[0,0.5],[0,0.25]];outlineConnect=0;gradientColor=none;html=1;whiteSpace=wrap;fontSize=12;fontStyle=0;container=1;pointerEvents=0;collapsible=0;recursiveResize=0;shape=mxgraph.aws4.group;grIcon=mxgraph.aws4.group_ec2_instance_contents;strokeColor=#D86613;fillColor=none;verticalAlign=top;align=left;spacingLeft=30;fontColor=#D86613;dashed=0;" vertex="1" parent="1">
          <mxGeometry x="1953" y="1651.68" width="487" height="130" as="geometry" />
        </mxCell>
        <mxCell id="WF2_lYyOvgvy8zbmnS7F-170" value="Private subnet" style="points=[[0,0],[0.25,0],[0.5,0],[0.75,0],[1,0],[1,0.25],[1,0.5],[1,0.75],[1,1],[0.75,1],[0.5,1],[0.25,1],[0,1],[0,0.75],[0,0.5],[0,0.25]];outlineConnect=0;gradientColor=none;html=1;whiteSpace=wrap;fontSize=12;fontStyle=0;container=1;pointerEvents=0;collapsible=0;recursiveResize=0;shape=mxgraph.aws4.group;grIcon=mxgraph.aws4.group_security_group;grStroke=0;strokeColor=#00A4A6;fillColor=#E6F6F7;verticalAlign=top;align=left;spacingLeft=30;fontColor=#147EBA;dashed=0;" vertex="1" parent="1">
          <mxGeometry x="3287" y="1418" width="540" height="163" as="geometry" />
        </mxCell>
        <mxCell id="WF2_lYyOvgvy8zbmnS7F-171" value="EC2 instance contents" style="points=[[0,0],[0.25,0],[0.5,0],[0.75,0],[1,0],[1,0.25],[1,0.5],[1,0.75],[1,1],[0.75,1],[0.5,1],[0.25,1],[0,1],[0,0.75],[0,0.5],[0,0.25]];outlineConnect=0;gradientColor=none;html=1;whiteSpace=wrap;fontSize=12;fontStyle=0;container=1;pointerEvents=0;collapsible=0;recursiveResize=0;shape=mxgraph.aws4.group;grIcon=mxgraph.aws4.group_ec2_instance_contents;strokeColor=#D86613;fillColor=none;verticalAlign=top;align=left;spacingLeft=30;fontColor=#D86613;dashed=0;" vertex="1" parent="WF2_lYyOvgvy8zbmnS7F-170">
          <mxGeometry x="31.879999999999995" y="22.5" width="156.12" height="133.5" as="geometry" />
        </mxCell>
        <mxCell id="WF2_lYyOvgvy8zbmnS7F-172" value="" style="sketch=0;outlineConnect=0;fontColor=#232F3E;gradientColor=none;fillColor=#ED7100;strokeColor=none;dashed=0;verticalLabelPosition=bottom;verticalAlign=top;align=center;html=1;fontSize=12;fontStyle=0;aspect=fixed;pointerEvents=1;shape=mxgraph.aws4.auto_scaling2;" vertex="1" parent="WF2_lYyOvgvy8zbmnS7F-170">
          <mxGeometry x="188" y="57.129999999999995" width="64.25" height="64.25" as="geometry" />
        </mxCell>
        <mxCell id="WF2_lYyOvgvy8zbmnS7F-173" value="Private subnet" style="points=[[0,0],[0.25,0],[0.5,0],[0.75,0],[1,0],[1,0.25],[1,0.5],[1,0.75],[1,1],[0.75,1],[0.5,1],[0.25,1],[0,1],[0,0.75],[0,0.5],[0,0.25]];outlineConnect=0;gradientColor=none;html=1;whiteSpace=wrap;fontSize=12;fontStyle=0;container=1;pointerEvents=0;collapsible=0;recursiveResize=0;shape=mxgraph.aws4.group;grIcon=mxgraph.aws4.group_security_group;grStroke=0;strokeColor=#00A4A6;fillColor=#E6F6F7;verticalAlign=top;align=left;spacingLeft=30;fontColor=#147EBA;dashed=0;" vertex="1" parent="1">
          <mxGeometry x="3281.75" y="1222" width="540" height="145" as="geometry" />
        </mxCell>
        <mxCell id="WF2_lYyOvgvy8zbmnS7F-174" value="" style="outlineConnect=0;dashed=0;verticalLabelPosition=bottom;verticalAlign=top;align=center;html=1;shape=mxgraph.aws3.rds_db_instance;fillColor=#2E73B8;gradientColor=none;" vertex="1" parent="WF2_lYyOvgvy8zbmnS7F-173">
          <mxGeometry x="218.25" y="28.08" width="61.44" height="81.92" as="geometry" />
        </mxCell>
        <mxCell id="WF2_lYyOvgvy8zbmnS7F-175" value="Private subnet" style="points=[[0,0],[0.25,0],[0.5,0],[0.75,0],[1,0],[1,0.25],[1,0.5],[1,0.75],[1,1],[0.75,1],[0.5,1],[0.25,1],[0,1],[0,0.75],[0,0.5],[0,0.25]];outlineConnect=0;gradientColor=none;html=1;whiteSpace=wrap;fontSize=12;fontStyle=0;container=1;pointerEvents=0;collapsible=0;recursiveResize=0;shape=mxgraph.aws4.group;grIcon=mxgraph.aws4.group_security_group;grStroke=0;strokeColor=#00A4A6;fillColor=#E6F6F7;verticalAlign=top;align=left;spacingLeft=30;fontColor=#147EBA;dashed=0;" vertex="1" parent="1">
          <mxGeometry x="4000" y="1630" width="200" height="160" as="geometry" />
        </mxCell>
        <mxCell id="WF2_lYyOvgvy8zbmnS7F-176" value="Private subnet" style="points=[[0,0],[0.25,0],[0.5,0],[0.75,0],[1,0],[1,0.25],[1,0.5],[1,0.75],[1,1],[0.75,1],[0.5,1],[0.25,1],[0,1],[0,0.75],[0,0.5],[0,0.25]];outlineConnect=0;gradientColor=none;html=1;whiteSpace=wrap;fontSize=12;fontStyle=0;container=1;pointerEvents=0;collapsible=0;recursiveResize=0;shape=mxgraph.aws4.group;grIcon=mxgraph.aws4.group_security_group;grStroke=0;strokeColor=#00A4A6;fillColor=#E6F6F7;verticalAlign=top;align=left;spacingLeft=30;fontColor=#147EBA;dashed=0;" vertex="1" parent="1">
          <mxGeometry x="3997" y="1418" width="540" height="163" as="geometry" />
        </mxCell>
        <mxCell id="WF2_lYyOvgvy8zbmnS7F-177" value="EC2 instance contents" style="points=[[0,0],[0.25,0],[0.5,0],[0.75,0],[1,0],[1,0.25],[1,0.5],[1,0.75],[1,1],[0.75,1],[0.5,1],[0.25,1],[0,1],[0,0.75],[0,0.5],[0,0.25]];outlineConnect=0;gradientColor=none;html=1;whiteSpace=wrap;fontSize=12;fontStyle=0;container=1;pointerEvents=0;collapsible=0;recursiveResize=0;shape=mxgraph.aws4.group;grIcon=mxgraph.aws4.group_ec2_instance_contents;strokeColor=#D86613;fillColor=none;verticalAlign=top;align=left;spacingLeft=30;fontColor=#D86613;dashed=0;" vertex="1" parent="WF2_lYyOvgvy8zbmnS7F-176">
          <mxGeometry x="31.879999999999995" y="22.5" width="156.12" height="133.5" as="geometry" />
        </mxCell>
        <mxCell id="WF2_lYyOvgvy8zbmnS7F-178" value="" style="sketch=0;outlineConnect=0;fontColor=#232F3E;gradientColor=none;fillColor=#ED7100;strokeColor=none;dashed=0;verticalLabelPosition=bottom;verticalAlign=top;align=center;html=1;fontSize=12;fontStyle=0;aspect=fixed;pointerEvents=1;shape=mxgraph.aws4.auto_scaling2;" vertex="1" parent="WF2_lYyOvgvy8zbmnS7F-176">
          <mxGeometry x="188" y="57.129999999999995" width="64.25" height="64.25" as="geometry" />
        </mxCell>
        <mxCell id="WF2_lYyOvgvy8zbmnS7F-179" value="Private subnet" style="points=[[0,0],[0.25,0],[0.5,0],[0.75,0],[1,0],[1,0.25],[1,0.5],[1,0.75],[1,1],[0.75,1],[0.5,1],[0.25,1],[0,1],[0,0.75],[0,0.5],[0,0.25]];outlineConnect=0;gradientColor=none;html=1;whiteSpace=wrap;fontSize=12;fontStyle=0;container=1;pointerEvents=0;collapsible=0;recursiveResize=0;shape=mxgraph.aws4.group;grIcon=mxgraph.aws4.group_security_group;grStroke=0;strokeColor=#00A4A6;fillColor=#E6F6F7;verticalAlign=top;align=left;spacingLeft=30;fontColor=#147EBA;dashed=0;" vertex="1" parent="1">
          <mxGeometry x="3994.37" y="1217.5" width="540" height="145" as="geometry" />
        </mxCell>
        <mxCell id="WF2_lYyOvgvy8zbmnS7F-181" value="" style="outlineConnect=0;dashed=0;verticalLabelPosition=bottom;verticalAlign=top;align=center;html=1;shape=mxgraph.aws3.rds_db_instance_read_replica;fillColor=#2E73B8;gradientColor=none;" vertex="1" parent="WF2_lYyOvgvy8zbmnS7F-179">
          <mxGeometry x="70" y="30" width="72.5" height="82" as="geometry" />
        </mxCell>
        <mxCell id="WF2_lYyOvgvy8zbmnS7F-182" value="" style="outlineConnect=0;dashed=0;verticalLabelPosition=bottom;verticalAlign=top;align=center;html=1;shape=mxgraph.aws3.rds_db_instance_standby_multi_az;fillColor=#2E73B8;gradientColor=none;" vertex="1" parent="WF2_lYyOvgvy8zbmnS7F-179">
          <mxGeometry x="210" y="30" width="76.38" height="82" as="geometry" />
        </mxCell>
        <mxCell id="WF2_lYyOvgvy8zbmnS7F-183" value="" style="outlineConnect=0;dashed=0;verticalLabelPosition=bottom;verticalAlign=top;align=center;html=1;shape=mxgraph.aws3.redis;fillColor=#2E73B8;gradientColor=none;" vertex="1" parent="1">
          <mxGeometry x="4030" y="1665.16" width="85.41" height="89.68" as="geometry" />
        </mxCell>
        <mxCell id="WF2_lYyOvgvy8zbmnS7F-184" value="" style="sketch=0;outlineConnect=0;fontColor=#232F3E;gradientColor=none;fillColor=#8C4FFF;strokeColor=none;dashed=0;verticalLabelPosition=bottom;verticalAlign=top;align=center;html=1;fontSize=12;fontStyle=0;aspect=fixed;pointerEvents=1;shape=mxgraph.aws4.network_load_balancer;" vertex="1" parent="1">
          <mxGeometry x="2131" y="840" width="78" height="78" as="geometry" />
        </mxCell>
        <mxCell id="WF2_lYyOvgvy8zbmnS7F-186" value="Private subnet" style="points=[[0,0],[0.25,0],[0.5,0],[0.75,0],[1,0],[1,0.25],[1,0.5],[1,0.75],[1,1],[0.75,1],[0.5,1],[0.25,1],[0,1],[0,0.75],[0,0.5],[0,0.25]];outlineConnect=0;gradientColor=none;html=1;whiteSpace=wrap;fontSize=12;fontStyle=0;container=1;pointerEvents=0;collapsible=0;recursiveResize=0;shape=mxgraph.aws4.group;grIcon=mxgraph.aws4.group_security_group;grStroke=0;strokeColor=#00A4A6;fillColor=#E6F6F7;verticalAlign=top;align=left;spacingLeft=30;fontColor=#147EBA;dashed=0;" vertex="1" parent="1">
          <mxGeometry x="2597" y="1630" width="534.75" height="160" as="geometry" />
        </mxCell>
        <mxCell id="WF2_lYyOvgvy8zbmnS7F-187" value="Private subnet" style="points=[[0,0],[0.25,0],[0.5,0],[0.75,0],[1,0],[1,0.25],[1,0.5],[1,0.75],[1,1],[0.75,1],[0.5,1],[0.25,1],[0,1],[0,0.75],[0,0.5],[0,0.25]];outlineConnect=0;gradientColor=none;html=1;whiteSpace=wrap;fontSize=12;fontStyle=0;container=1;pointerEvents=0;collapsible=0;recursiveResize=0;shape=mxgraph.aws4.group;grIcon=mxgraph.aws4.group_security_group;grStroke=0;strokeColor=#00A4A6;fillColor=#E6F6F7;verticalAlign=top;align=left;spacingLeft=30;fontColor=#147EBA;dashed=0;" vertex="1" parent="1">
          <mxGeometry x="2597" y="1419" width="540" height="163" as="geometry" />
        </mxCell>
        <mxCell id="WF2_lYyOvgvy8zbmnS7F-188" value="EC2 instance contents" style="points=[[0,0],[0.25,0],[0.5,0],[0.75,0],[1,0],[1,0.25],[1,0.5],[1,0.75],[1,1],[0.75,1],[0.5,1],[0.25,1],[0,1],[0,0.75],[0,0.5],[0,0.25]];outlineConnect=0;gradientColor=none;html=1;whiteSpace=wrap;fontSize=12;fontStyle=0;container=1;pointerEvents=0;collapsible=0;recursiveResize=0;shape=mxgraph.aws4.group;grIcon=mxgraph.aws4.group_ec2_instance_contents;strokeColor=#D86613;fillColor=none;verticalAlign=top;align=left;spacingLeft=30;fontColor=#D86613;dashed=0;" vertex="1" parent="WF2_lYyOvgvy8zbmnS7F-187">
          <mxGeometry x="31.879999999999995" y="22.5" width="156.12" height="133.5" as="geometry" />
        </mxCell>
        <mxCell id="WF2_lYyOvgvy8zbmnS7F-189" value="" style="sketch=0;outlineConnect=0;fontColor=#232F3E;gradientColor=none;fillColor=#ED7100;strokeColor=none;dashed=0;verticalLabelPosition=bottom;verticalAlign=top;align=center;html=1;fontSize=12;fontStyle=0;aspect=fixed;pointerEvents=1;shape=mxgraph.aws4.auto_scaling2;" vertex="1" parent="WF2_lYyOvgvy8zbmnS7F-187">
          <mxGeometry x="188" y="57.129999999999995" width="64.25" height="64.25" as="geometry" />
        </mxCell>
        <mxCell id="WF2_lYyOvgvy8zbmnS7F-190" value="Private subnet" style="points=[[0,0],[0.25,0],[0.5,0],[0.75,0],[1,0],[1,0.25],[1,0.5],[1,0.75],[1,1],[0.75,1],[0.5,1],[0.25,1],[0,1],[0,0.75],[0,0.5],[0,0.25]];outlineConnect=0;gradientColor=none;html=1;whiteSpace=wrap;fontSize=12;fontStyle=0;container=1;pointerEvents=0;collapsible=0;recursiveResize=0;shape=mxgraph.aws4.group;grIcon=mxgraph.aws4.group_security_group;grStroke=0;strokeColor=#00A4A6;fillColor=#E6F6F7;verticalAlign=top;align=left;spacingLeft=30;fontColor=#147EBA;dashed=0;" vertex="1" parent="1">
          <mxGeometry x="2595" y="1222" width="540" height="145" as="geometry" />
        </mxCell>
        <mxCell id="WF2_lYyOvgvy8zbmnS7F-191" value="" style="outlineConnect=0;dashed=0;verticalLabelPosition=bottom;verticalAlign=top;align=center;html=1;shape=mxgraph.aws3.rds_db_instance;fillColor=#2E73B8;gradientColor=none;" vertex="1" parent="WF2_lYyOvgvy8zbmnS7F-190">
          <mxGeometry x="236.8699999999999" y="46" width="49.5" height="66" as="geometry" />
        </mxCell>
        <mxCell id="WF2_lYyOvgvy8zbmnS7F-192" value="&lt;font style=&quot;font-size: 24px;&quot;&gt;Developer team&lt;br&gt;&lt;br&gt;&lt;/font&gt;" style="text;html=1;strokeColor=none;fillColor=none;align=center;verticalAlign=middle;whiteSpace=wrap;rounded=0;" vertex="1" parent="1">
          <mxGeometry x="1288.47" y="2512" width="250" height="50" as="geometry" />
        </mxCell>
        <mxCell id="WF2_lYyOvgvy8zbmnS7F-198" value="&lt;font style=&quot;font-size: 24px;&quot;&gt;Database Tier&lt;/font&gt;" style="text;html=1;strokeColor=none;fillColor=none;align=center;verticalAlign=middle;whiteSpace=wrap;rounded=0;" vertex="1" parent="1">
          <mxGeometry x="4830" y="1307.5" width="270" height="30" as="geometry" />
        </mxCell>
        <mxCell id="WF2_lYyOvgvy8zbmnS7F-199" value="&lt;font style=&quot;font-size: 24px;&quot;&gt;Back-end&lt;/font&gt;" style="text;html=1;strokeColor=none;fillColor=none;align=center;verticalAlign=middle;whiteSpace=wrap;rounded=0;" vertex="1" parent="1">
          <mxGeometry x="4891" y="1492.5" width="110" height="30" as="geometry" />
        </mxCell>
        <mxCell id="WF2_lYyOvgvy8zbmnS7F-200" value="&lt;span style=&quot;font-size: 24px;&quot;&gt;Cache Tier&lt;/span&gt;" style="text;html=1;strokeColor=none;fillColor=none;align=center;verticalAlign=middle;whiteSpace=wrap;rounded=0;" vertex="1" parent="1">
          <mxGeometry x="4812" y="1695" width="270" height="30" as="geometry" />
        </mxCell>
        <mxCell id="WF2_lYyOvgvy8zbmnS7F-203" value="Public subnet" style="points=[[0,0],[0.25,0],[0.5,0],[0.75,0],[1,0],[1,0.25],[1,0.5],[1,0.75],[1,1],[0.75,1],[0.5,1],[0.25,1],[0,1],[0,0.75],[0,0.5],[0,0.25]];outlineConnect=0;gradientColor=none;html=1;whiteSpace=wrap;fontSize=12;fontStyle=0;container=1;pointerEvents=0;collapsible=0;recursiveResize=0;shape=mxgraph.aws4.group;grIcon=mxgraph.aws4.group_security_group;grStroke=0;strokeColor=#7AA116;fillColor=#F2F6E8;verticalAlign=top;align=left;spacingLeft=30;fontColor=#248814;dashed=0;" vertex="1" parent="1">
          <mxGeometry x="2590" y="620" width="550" height="140" as="geometry" />
        </mxCell>
        <mxCell id="WF2_lYyOvgvy8zbmnS7F-204" value="" style="outlineConnect=0;dashed=0;verticalLabelPosition=bottom;verticalAlign=top;align=center;html=1;shape=mxgraph.aws3.vpc_nat_gateway;fillColor=#F58534;gradientColor=none;" vertex="1" parent="WF2_lYyOvgvy8zbmnS7F-203">
          <mxGeometry x="30.37" y="28" width="69.63" height="67" as="geometry" />
        </mxCell>
        <mxCell id="WF2_lYyOvgvy8zbmnS7F-206" value="Public subnet" style="points=[[0,0],[0.25,0],[0.5,0],[0.75,0],[1,0],[1,0.25],[1,0.5],[1,0.75],[1,1],[0.75,1],[0.5,1],[0.25,1],[0,1],[0,0.75],[0,0.5],[0,0.25]];outlineConnect=0;gradientColor=none;html=1;whiteSpace=wrap;fontSize=12;fontStyle=0;container=1;pointerEvents=0;collapsible=0;recursiveResize=0;shape=mxgraph.aws4.group;grIcon=mxgraph.aws4.group_security_group;grStroke=0;strokeColor=#7AA116;fillColor=#F2F6E8;verticalAlign=top;align=left;spacingLeft=30;fontColor=#248814;dashed=0;" vertex="1" parent="1">
          <mxGeometry x="3990" y="630" width="560" height="140" as="geometry" />
        </mxCell>
        <mxCell id="WF2_lYyOvgvy8zbmnS7F-207" value="" style="outlineConnect=0;dashed=0;verticalLabelPosition=bottom;verticalAlign=top;align=center;html=1;shape=mxgraph.aws3.vpc_nat_gateway;fillColor=#F58534;gradientColor=none;" vertex="1" parent="WF2_lYyOvgvy8zbmnS7F-206">
          <mxGeometry x="20" y="36.5" width="69.63" height="67" as="geometry" />
        </mxCell>
        <mxCell id="WF2_lYyOvgvy8zbmnS7F-216" value="Kubernetes Cluster" style="points=[[0,0],[0.25,0],[0.5,0],[0.75,0],[1,0],[1,0.25],[1,0.5],[1,0.75],[1,1],[0.75,1],[0.5,1],[0.25,1],[0,1],[0,0.75],[0,0.5],[0,0.25]];outlineConnect=0;gradientColor=none;html=1;whiteSpace=wrap;fontSize=12;fontStyle=0;container=1;pointerEvents=0;collapsible=0;recursiveResize=0;shape=mxgraph.aws4.group;grIcon=mxgraph.aws4.group_ec2_instance_contents;strokeColor=#D86613;fillColor=none;verticalAlign=top;align=left;spacingLeft=30;fontColor=#D86613;dashed=0;" vertex="1" parent="1">
          <mxGeometry x="2620" y="1652.68" width="490" height="130" as="geometry" />
        </mxCell>
        <mxCell id="WF2_lYyOvgvy8zbmnS7F-266" value="" style="outlineConnect=0;dashed=0;verticalLabelPosition=bottom;verticalAlign=top;align=center;html=1;shape=mxgraph.aws3.volume;fillColor=#E05243;gradientColor=none;" vertex="1" parent="WF2_lYyOvgvy8zbmnS7F-216">
          <mxGeometry x="429" y="30.320000000000164" width="30" height="54.18" as="geometry" />
        </mxCell>
        <mxCell id="WF2_lYyOvgvy8zbmnS7F-222" value="&lt;span style=&quot;font-size: 18px;&quot;&gt;DNS&lt;/span&gt;" style="text;html=1;strokeColor=none;fillColor=none;align=center;verticalAlign=middle;whiteSpace=wrap;rounded=0;" vertex="1" parent="1">
          <mxGeometry x="127" y="1619" width="240" height="25" as="geometry" />
        </mxCell>
        <mxCell id="WF2_lYyOvgvy8zbmnS7F-74" style="edgeStyle=orthogonalEdgeStyle;rounded=0;orthogonalLoop=1;jettySize=auto;html=1;entryX=0.5;entryY=0;entryDx=0;entryDy=0;entryPerimeter=0;" edge="1" parent="1" source="WF2_lYyOvgvy8zbmnS7F-60" target="WF2_lYyOvgvy8zbmnS7F-56">
          <mxGeometry relative="1" as="geometry">
            <mxPoint x="3125" y="2150" as="targetPoint" />
          </mxGeometry>
        </mxCell>
        <mxCell id="WF2_lYyOvgvy8zbmnS7F-228" value="" style="swimlane;startSize=0;" vertex="1" parent="1">
          <mxGeometry x="-248" y="390" width="350" height="430" as="geometry" />
        </mxCell>
        <mxCell id="WF2_lYyOvgvy8zbmnS7F-226" value="" style="shape=image;verticalLabelPosition=bottom;labelBackgroundColor=default;verticalAlign=top;aspect=fixed;imageAspect=0;image=https://1000logos.net/wp-content/uploads/2021/05/Google-logo.png;" vertex="1" parent="WF2_lYyOvgvy8zbmnS7F-228">
          <mxGeometry x="63.329999999999984" y="44" width="213.33" height="120" as="geometry" />
        </mxCell>
        <mxCell id="WF2_lYyOvgvy8zbmnS7F-229" value="&lt;font style=&quot;font-size: 24px;&quot;&gt;oauth Provider&lt;/font&gt;" style="text;html=1;strokeColor=none;fillColor=none;align=center;verticalAlign=middle;whiteSpace=wrap;rounded=0;" vertex="1" parent="1">
          <mxGeometry x="-158" y="350" width="180" height="30" as="geometry" />
        </mxCell>
        <mxCell id="WF2_lYyOvgvy8zbmnS7F-233" style="edgeStyle=orthogonalEdgeStyle;rounded=0;orthogonalLoop=1;jettySize=auto;html=1;exitX=0;exitY=0.5;exitDx=0;exitDy=0;exitPerimeter=0;" edge="1" parent="1" source="WF2_lYyOvgvy8zbmnS7F-113" target="WF2_lYyOvgvy8zbmnS7F-103">
          <mxGeometry relative="1" as="geometry" />
        </mxCell>
        <mxCell id="WF2_lYyOvgvy8zbmnS7F-270" style="edgeStyle=orthogonalEdgeStyle;rounded=0;orthogonalLoop=1;jettySize=auto;html=1;exitX=1;exitY=0.7;exitDx=0;exitDy=0;exitPerimeter=0;" edge="1" parent="1" source="WF2_lYyOvgvy8zbmnS7F-234" target="WF2_lYyOvgvy8zbmnS7F-5">
          <mxGeometry relative="1" as="geometry">
            <Array as="points">
              <mxPoint x="1240" y="624" />
              <mxPoint x="1240" y="1460" />
            </Array>
          </mxGeometry>
        </mxCell>
        <mxCell id="WF2_lYyOvgvy8zbmnS7F-234" value="" style="outlineConnect=0;dashed=0;verticalLabelPosition=bottom;verticalAlign=top;align=center;html=1;shape=mxgraph.aws3.internet_2;fillColor=#D2D3D3;gradientColor=none;" vertex="1" parent="1">
          <mxGeometry x="367" y="453" width="359.5" height="244" as="geometry" />
        </mxCell>
        <mxCell id="WF2_lYyOvgvy8zbmnS7F-237" value="" style="endArrow=classic;startArrow=classic;html=1;rounded=0;exitX=0.93;exitY=0.93;exitDx=0;exitDy=0;exitPerimeter=0;" edge="1" parent="1" source="WF2_lYyOvgvy8zbmnS7F-234" target="WF2_lYyOvgvy8zbmnS7F-103">
          <mxGeometry width="50" height="50" relative="1" as="geometry">
            <mxPoint x="830" y="940" as="sourcePoint" />
            <mxPoint x="880" y="890" as="targetPoint" />
            <Array as="points">
              <mxPoint x="1260" y="990" />
            </Array>
          </mxGeometry>
        </mxCell>
        <mxCell id="WF2_lYyOvgvy8zbmnS7F-238" value="&lt;font style=&quot;font-size: 36px;&quot;&gt;Internet&lt;/font&gt;" style="text;html=1;strokeColor=none;fillColor=none;align=center;verticalAlign=middle;whiteSpace=wrap;rounded=0;" vertex="1" parent="1">
          <mxGeometry x="390" y="714" width="300" height="30" as="geometry" />
        </mxCell>
        <mxCell id="WF2_lYyOvgvy8zbmnS7F-221" value="API Gateway" style="sketch=0;outlineConnect=0;fontColor=#232F3E;gradientColor=none;strokeColor=#ffffff;fillColor=#232F3E;dashed=0;verticalLabelPosition=middle;verticalAlign=bottom;align=center;html=1;whiteSpace=wrap;fontSize=10;fontStyle=1;spacing=3;shape=mxgraph.aws4.productIcon;prIcon=mxgraph.aws4.api_gateway;" vertex="1" parent="1">
          <mxGeometry x="1000" y="1440" width="150" height="176.5" as="geometry" />
        </mxCell>
        <mxCell id="WF2_lYyOvgvy8zbmnS7F-241" value="" style="edgeStyle=segmentEdgeStyle;endArrow=classic;html=1;curved=0;rounded=0;endSize=8;startSize=8;entryX=0.091;entryY=0.5;entryDx=0;entryDy=0;entryPerimeter=0;" edge="1" parent="1" target="WF2_lYyOvgvy8zbmnS7F-4">
          <mxGeometry width="50" height="50" relative="1" as="geometry">
            <mxPoint x="1149.999999999999" y="1525.012658227848" as="sourcePoint" />
            <mxPoint x="1220" y="1520" as="targetPoint" />
          </mxGeometry>
        </mxCell>
        <mxCell id="WF2_lYyOvgvy8zbmnS7F-245" value="" style="swimlane;startSize=0;" vertex="1" parent="1">
          <mxGeometry x="-248" y="2690" width="340" height="480" as="geometry" />
        </mxCell>
        <mxCell id="WF2_lYyOvgvy8zbmnS7F-246" value="" style="swimlane;startSize=0;" vertex="1" parent="1">
          <mxGeometry x="5640" y="700" width="2150" height="1970" as="geometry" />
        </mxCell>
        <mxCell id="WF2_lYyOvgvy8zbmnS7F-247" value="&lt;font style=&quot;font-size: 72px;&quot;&gt;Collection&lt;/font&gt;" style="text;html=1;align=center;verticalAlign=middle;resizable=0;points=[];autosize=1;strokeColor=none;fillColor=none;" vertex="1" parent="1">
          <mxGeometry x="6603" y="600" width="340" height="100" as="geometry" />
        </mxCell>
        <mxCell id="WF2_lYyOvgvy8zbmnS7F-248" style="edgeStyle=orthogonalEdgeStyle;rounded=0;orthogonalLoop=1;jettySize=auto;html=1;exitX=0.145;exitY=0.145;exitDx=0;exitDy=0;exitPerimeter=0;" edge="1" parent="1" source="WF2_lYyOvgvy8zbmnS7F-60" target="WF2_lYyOvgvy8zbmnS7F-64">
          <mxGeometry relative="1" as="geometry" />
        </mxCell>
        <mxCell id="WF2_lYyOvgvy8zbmnS7F-250" value="&lt;span style=&quot;font-size: 24px;&quot;&gt;Data Aggregrator Tier&lt;/span&gt;" style="text;html=1;strokeColor=none;fillColor=none;align=center;verticalAlign=middle;whiteSpace=wrap;rounded=0;" vertex="1" parent="1">
          <mxGeometry x="4880" y="1068" width="270" height="30" as="geometry" />
        </mxCell>
        <mxCell id="WF2_lYyOvgvy8zbmnS7F-251" value="Private subnet" style="points=[[0,0],[0.25,0],[0.5,0],[0.75,0],[1,0],[1,0.25],[1,0.5],[1,0.75],[1,1],[0.75,1],[0.5,1],[0.25,1],[0,1],[0,0.75],[0,0.5],[0,0.25]];outlineConnect=0;gradientColor=none;html=1;whiteSpace=wrap;fontSize=12;fontStyle=0;container=1;pointerEvents=0;collapsible=0;recursiveResize=0;shape=mxgraph.aws4.group;grIcon=mxgraph.aws4.group_security_group;grStroke=0;strokeColor=#00A4A6;fillColor=#E6F6F7;verticalAlign=top;align=left;spacingLeft=30;fontColor=#147EBA;dashed=0;" vertex="1" parent="1">
          <mxGeometry x="1917" y="1002" width="534.75" height="160" as="geometry" />
        </mxCell>
        <mxCell id="WF2_lYyOvgvy8zbmnS7F-255" value="Private subnet" style="points=[[0,0],[0.25,0],[0.5,0],[0.75,0],[1,0],[1,0.25],[1,0.5],[1,0.75],[1,1],[0.75,1],[0.5,1],[0.25,1],[0,1],[0,0.75],[0,0.5],[0,0.25]];outlineConnect=0;gradientColor=none;html=1;whiteSpace=wrap;fontSize=12;fontStyle=0;container=1;pointerEvents=0;collapsible=0;recursiveResize=0;shape=mxgraph.aws4.group;grIcon=mxgraph.aws4.group_security_group;grStroke=0;strokeColor=#00A4A6;fillColor=#E6F6F7;verticalAlign=top;align=left;spacingLeft=30;fontColor=#147EBA;dashed=0;" vertex="1" parent="1">
          <mxGeometry x="2597" y="1002" width="534.75" height="160" as="geometry" />
        </mxCell>
        <mxCell id="WF2_lYyOvgvy8zbmnS7F-257" value="Private subnet" style="points=[[0,0],[0.25,0],[0.5,0],[0.75,0],[1,0],[1,0.25],[1,0.5],[1,0.75],[1,1],[0.75,1],[0.5,1],[0.25,1],[0,1],[0,0.75],[0,0.5],[0,0.25]];outlineConnect=0;gradientColor=none;html=1;whiteSpace=wrap;fontSize=12;fontStyle=0;container=1;pointerEvents=0;collapsible=0;recursiveResize=0;shape=mxgraph.aws4.group;grIcon=mxgraph.aws4.group_security_group;grStroke=0;strokeColor=#00A4A6;fillColor=#E6F6F7;verticalAlign=top;align=left;spacingLeft=30;fontColor=#147EBA;dashed=0;" vertex="1" parent="1">
          <mxGeometry x="3277" y="1003" width="534.75" height="160" as="geometry" />
        </mxCell>
        <mxCell id="WF2_lYyOvgvy8zbmnS7F-262" value="Private subnet" style="points=[[0,0],[0.25,0],[0.5,0],[0.75,0],[1,0],[1,0.25],[1,0.5],[1,0.75],[1,1],[0.75,1],[0.5,1],[0.25,1],[0,1],[0,0.75],[0,0.5],[0,0.25]];outlineConnect=0;gradientColor=none;html=1;whiteSpace=wrap;fontSize=12;fontStyle=0;container=1;pointerEvents=0;collapsible=0;recursiveResize=0;shape=mxgraph.aws4.group;grIcon=mxgraph.aws4.group_security_group;grStroke=0;strokeColor=#00A4A6;fillColor=#E6F6F7;verticalAlign=top;align=left;spacingLeft=30;fontColor=#147EBA;dashed=0;" vertex="1" parent="1">
          <mxGeometry x="3997" y="1003" width="534.75" height="160" as="geometry" />
        </mxCell>
        <mxCell id="WF2_lYyOvgvy8zbmnS7F-265" value="" style="outlineConnect=0;dashed=0;verticalLabelPosition=bottom;verticalAlign=top;align=center;html=1;shape=mxgraph.aws3.volume;fillColor=#E05243;gradientColor=none;" vertex="1" parent="1">
          <mxGeometry x="2370" y="1682.91" width="30" height="54.18" as="geometry" />
        </mxCell>
        <mxCell id="WF2_lYyOvgvy8zbmnS7F-269" value="" style="outlineConnect=0;dashed=0;verticalLabelPosition=bottom;verticalAlign=top;align=center;html=1;shape=mxgraph.aws3.volume;fillColor=#E05243;gradientColor=none;" vertex="1" parent="1">
          <mxGeometry x="3759" y="1663.0000000000002" width="30" height="54.18" as="geometry" />
        </mxCell>
        <mxCell id="WF2_lYyOvgvy8zbmnS7F-271" value="" style="endArrow=classic;html=1;rounded=0;exitX=0.398;exitY=0.1;exitDx=0;exitDy=0;exitPerimeter=0;" edge="1" parent="1">
          <mxGeometry width="50" height="50" relative="1" as="geometry">
            <mxPoint x="2651.16" y="649.9999999999995" as="sourcePoint" />
            <mxPoint x="2651" y="240" as="targetPoint" />
          </mxGeometry>
        </mxCell>
        <mxCell id="WF2_lYyOvgvy8zbmnS7F-274" value="" style="ellipse;shape=cloud;whiteSpace=wrap;html=1;" vertex="1" parent="1">
          <mxGeometry x="2590" y="150" width="120" height="80" as="geometry" />
        </mxCell>
        <mxCell id="WF2_lYyOvgvy8zbmnS7F-280" value="" style="shape=image;verticalLabelPosition=bottom;labelBackgroundColor=default;verticalAlign=top;aspect=fixed;imageAspect=0;image=https://static.javatpoint.com/tutorial/firebase/images/firebase-cloud-messaging.png;" vertex="1" parent="1">
          <mxGeometry x="-220" y="923" width="267" height="267" as="geometry" />
        </mxCell>
      </root>
    </mxGraphModel>
  </diagram>
</mxfile>
